<?xml version="1.0" encoding="utf-8"?>
<!-- Generator: Adobe Illustrator 21.0.0, SVG Export Plug-In . SVG Version: 6.00 Build 0)  -->
<svg version="1.1" id="Layer_1" xmlns="http://www.w3.org/2000/svg" xmlns:xlink="http://www.w3.org/1999/xlink" x="0px" y="0px"
	 viewBox="0 0 28 29" style="enable-background:new 0 0 28 29;" xml:space="preserve">
<style type="text/css">
	.st0{fill:#ff428a;}
	.st1{fill:#FFFFFF;}
</style>
<circle class="st0" cx="13.9" cy="14.7" r="14.1"/>
<g id="iGTu5F_19_">
	<g>
		<path class="st1" d="M12,13.7c0.8,2,2.2,3.4,4.2,4.2c0.1-0.2,0.1-0.4,0.2-0.5c0.1-0.3,0.1-0.3,0.5-0.3c1.2,0.2,2.4,0.4,3.7,0.6
			c0.2,0,0.2,0,0.3,0.3c0.2,1.1-0.6,2.3-1.9,2.6c-0.3,0.1-0.6,0-0.9,0c-1.2-0.1-2.4-0.3-3.5-0.9c-1.4-0.7-2.6-1.6-3.5-2.9
			c-0.9-1.2-1.4-2.4-1.6-3.8c-0.1-0.6-0.2-1.3-0.1-1.9c0.1-1,1-1.8,1.9-1.9c0.3,0,0.5,0,0.8,0c0.1,0,0.1,0,0.1,0.1
			c0.2,1.3,0.4,2.7,0.6,4c0,0.1,0,0.1-0.1,0.2C12.5,13.5,12.2,13.6,12,13.7z"/>
	</g>
</g>
</svg>
