<?xml version="1.0" encoding="utf-8"?>
<!-- Generator: Adobe Illustrator 21.0.0, SVG Export Plug-In . SVG Version: 6.00 Build 0)  -->
<svg version="1.1" id="Layer_1" xmlns="http://www.w3.org/2000/svg" xmlns:xlink="http://www.w3.org/1999/xlink" x="0px" y="0px"
	 viewBox="0 0 37 25" style="enable-background:new 0 0 37 25;" xml:space="preserve">
<style type="text/css">
	.st0{fill:#FFFFFF;}
</style>
<g id="Group_188_35_" transform="translate(-205.087 -129.145)">
	<path id="Path_198_35_" class="st0" d="M239.7,137.5l1.5-8.1l-3.2,0.8l1.5,7.3L239.7,137.5z"/>
	<path id="Path_199_35_" class="st0" d="M239.7,138.4c-0.8,0.3-1.3,1-1.4,1.9c-0.1,0.6,0.4,1.1,0.9,1.2c0.1,0,0.3,0,0.4,0
		c0.8-0.3,1.3-1,1.4-1.9c0.1-0.6-0.4-1.1-0.9-1.2C240,138.4,239.9,138.4,239.7,138.4"/>
	<path id="Path_200_35_" class="st0" d="M208,141.6c0,0.9,0.4,1.7,1.5,1.8c-1.1,0.6-1.8,1.8-1.8,3c0,2.3,1.8,3.6,5.3,2.6
		c4-1.1,7.3-4.8,7.3-8.1c0-1.3-0.4-2.1-1.2-2.3v-1.5l2.6-0.7v9.7l1.8-0.5v-11.4l-17,4.6v1.7l2-0.5C208.2,140.4,208,141,208,141.6
		 M217.4,144.1c-0.6-0.6-0.9-1.3-0.9-2.1c-0.1-0.7,0.3-1.4,1-1.6c0.7-0.2,1,0.3,1,1C218.4,142.4,218.1,143.3,217.4,144.1
		 M217.3,138.7c-2.1,0.8-3.2,3.2-2.3,5.4c0.2,0.5,0.5,1,1,1.4c-0.9,0.7-2,1.2-3.2,1.6c-1.9,0.5-3.2,0.1-3.2-1.2c0-1,0.7-1.8,1.7-2
		l1.9-0.5l0.1-0.2l-0.4-1.5l-1.6,0.4c-0.8,0.2-1.5-0.1-1.5-1c0-0.6,0.2-1.2,0.6-1.7l6.9-1.8L217.3,138.7z"/>
	<path id="Path_201_35_" class="st0" d="M226.5,135.1l4.6-1.2v2.2l-4.6,1.2v1.7c0.8,0.1,1.1,0.8,1.1,2.1c0,3.6-3.8,8.2-10.7,10
		c-5.4,1.4-9.7,0.1-10.9-3.8l-0.3,0.2c1.3,4.9,6,6.7,12,5.1c7.2-1.9,11.7-7.2,11.7-11.6c0-0.9-0.2-1.8-0.8-2.5
		c0.6-0.1,1.1-0.2,1.6-0.3l0.9-0.2v5.5l1.8-0.5v-9.7l2.1-0.6v9.7l1.8-0.5v-11.4l-10.3,2.8L226.5,135.1z"/>
</g>
</svg>
