<?xml version="1.0" encoding="utf-8"?>
<!-- Generator: Adobe Illustrator 21.0.0, SVG Export Plug-In . SVG Version: 6.00 Build 0)  -->
<svg version="1.1" id="Layer_1" widht="25" height="25" xmlns="http://www.w3.org/2000/svg" xmlns:xlink="http://www.w3.org/1999/xlink" x="0px" y="0px"
	 viewBox="0 0 48 33" style="enable-background:new 0 0 48 33;" xml:space="preserve">
<style type="text/css">
	.st0{fill:#FFE559;}
</style>
<g id="Group_188_19_" transform="translate(-205.087 -129.145)">
	<path id="Path_198_19_" class="st0" d="M250,140.7l1.9-10.3l-4,1.1l1.9,9.3L250,140.7z"/>
	<path id="Path_199_19_" class="st0" d="M250,141.9c-1,0.3-1.7,1.3-1.7,2.4c-0.1,0.7,0.5,1.4,1.2,1.5c0.2,0,0.4,0,0.5,0
		c1-0.3,1.7-1.3,1.7-2.4c0.1-0.7-0.5-1.4-1.2-1.5C250.3,141.8,250.1,141.8,250,141.9"/>
	<path id="Path_200_19_" class="st0" d="M209.2,145.9c0,1.2,0.5,2.2,2,2.2c-1.4,0.8-2.3,2.3-2.3,3.9c0,3,2.3,4.6,6.8,3.4
		c5.1-1.4,9.4-6.2,9.4-10.4c0-1.7-0.6-2.6-1.6-3v-1.9l3.4-0.9v12.4l2.3-0.6v-14.6l-21.8,5.8v2.2l2.5-0.7
		C209.5,144.5,209.3,145.2,209.2,145.9 M221.3,149.1c-0.7-0.7-1.1-1.7-1.1-2.7c-0.1-0.9,0.4-1.8,1.3-2.1c0.9-0.2,1.3,0.4,1.3,1.3
		C222.7,147,222.2,148.2,221.3,149.1 M221.2,142.2c-2.7,1.1-4.1,4.2-3,6.9c0.3,0.7,0.7,1.3,1.2,1.9c-1.2,0.9-2.6,1.6-4.1,2
		c-2.5,0.7-4.1,0.1-4.1-1.5c0.1-1.2,1-2.3,2.2-2.5l2.5-0.7l0.1-0.3l-0.5-2l-2,0.5c-1,0.3-1.9-0.1-1.9-1.3c0.1-0.8,0.3-1.5,0.7-2.1
		l8.8-2.4L221.2,142.2z"/>
	<path id="Path_201_19_" class="st0" d="M233,137.6l6-1.6v2.8l-6,1.6v2.2c1.1,0.1,1.4,1,1.4,2.7c0,4.6-4.9,10.5-13.7,12.9
		c-6.9,1.9-12.4,0.2-14-4.9l-0.4,0.3c1.6,6.3,7.7,8.5,15.4,6.5c9.3-2.5,15-9.2,15-14.9c0.1-1.1-0.3-2.3-1-3.2
		c0.7-0.1,1.4-0.2,2.1-0.4l1.2-0.3v7.1l2.3-0.6v-12.4l2.7-0.7v12.4l2.3-0.6v-14.6l-13.2,3.5L233,137.6z"/>
</g>
</svg>
