<?xml version="1.0" encoding="utf-8"?>
<!-- Generator: Adobe Illustrator 21.0.0, SVG Export Plug-In . SVG Version: 6.00 Build 0)  -->
<svg version="1.1" id="Layer_1" xmlns="http://www.w3.org/2000/svg" xmlns:xlink="http://www.w3.org/1999/xlink" x="0px" y="0px"
	 viewBox="0 0 31 31" style="enable-background:new 0 0 31 31;" xml:space="preserve">
<style type="text/css">
	.st0{fill:#262626;}
	.st1{fill:#FFFFFF;}
</style>
<g>
	<circle class="st0" cx="15.7" cy="15.4" r="14.6"/>
	<g id="eywYPJ_19_">
		<g>
			<path class="st1" d="M22.4,20.5c-4.5,0-8.9,0-13.4,0c0-3.4,0-6.7,0-10.1c4.5,0,8.9,0,13.4,0C22.4,13.7,22.4,17.1,22.4,20.5z
				 M10.6,11.3c0.1,0.1,0.1,0.1,0.1,0.1c1.5,1.5,3,3,4.5,4.6c0.4,0.4,0.6,0.4,1,0c1.5-1.5,3-3,4.5-4.6c0,0,0.1-0.1,0.1-0.1
				C17.5,11.3,14,11.3,10.6,11.3z M17.5,16.1c-0.2,0.2-0.4,0.4-0.6,0.6c-0.6,0.6-1.7,0.6-2.3,0c-0.2-0.2-0.4-0.4-0.6-0.6
				c-1.1,1.1-2.2,2.3-3.4,3.5c3.4,0,6.8,0,10.2,0C19.7,18.4,18.6,17.2,17.5,16.1z M9.9,12c0,2.3,0,4.6,0,6.9
				c1.1-1.2,2.3-2.3,3.4-3.5C12.2,14.2,11.1,13.1,9.9,12z M21.5,18.8c0-2.3,0-4.5,0-6.7c-1.1,1.1-2.2,2.2-3.4,3.3
				C19.2,16.6,20.4,17.7,21.5,18.8z"/>
		</g>
	</g>
</g>
</svg>
