<?xml version="1.0" encoding="utf-8"?>
<!-- Generator: Adobe Illustrator 21.0.0, SVG Export Plug-In . SVG Version: 6.00 Build 0)  -->
<svg version="1.1" id="Layer_1" xmlns="http://www.w3.org/2000/svg" xmlns:xlink="http://www.w3.org/1999/xlink" x="0px" y="0px"
	 viewBox="0 0 46 40" style="enable-background:new 0 0 46 40;" xml:space="preserve">
<style type="text/css">
	.st0{opacity:0.88;}
	.st1{fill:#8226FA;}
	.st2{fill:#FFFFFF;}
	.st3{fill:#F7EDF0;}
	.st4{fill:#F28AB2;}
	.st5{fill:#E81C26;}
	.st6{fill:#FF4A5C;}
</style>
<g class="st0">
	<path class="st1" d="M34.6,39l-19.4-4.7c-2.1-0.5-3.4-2.7-2.9-4.8l6.1-25.5c0.5-2.1,2.7-3.4,4.8-2.9l19.4,4.7
		c2.1,0.5,3.4,2.7,2.9,4.8l-6.1,25.5C38.9,38.2,36.8,39.5,34.6,39"/>
	<path class="st2" d="M34.9,36.9l-19.2-4.6c-1.2-0.3-1.9-1.5-1.6-2.6l5.3-21.9l23.4,5.6l-5.3,21.9C37.2,36.5,36.1,37.2,34.9,36.9z"
		/>
	<g>
		<path class="st3" d="M24.7,13.3c-0.1,0.6-0.8,1-1.4,0.8s-1-0.8-0.8-1.4c0.1-0.6,0.8-1,1.4-0.8C24.5,12,24.9,12.6,24.7,13.3"/>
		<path class="st3" d="M29.1,14.3c-0.1,0.6-0.8,1-1.4,0.8s-1-0.8-0.8-1.4c0.1-0.6,0.8-1,1.4-0.8C28.8,13.1,29.2,13.7,29.1,14.3"/>
		<path class="st4" d="M33.4,15.3c-0.1,0.6-0.8,1-1.4,0.8c-0.6-0.1-1-0.8-0.8-1.4c0.1-0.6,0.8-1,1.4-0.8
			C33.2,14.1,33.5,14.7,33.4,15.3"/>
		<path class="st4" d="M37.7,16.4c-0.1,0.6-0.8,1-1.4,0.8c-0.6-0.1-1-0.8-0.8-1.4c0.1-0.6,0.8-1,1.4-0.8
			C37.5,15.1,37.9,15.8,37.7,16.4"/>
		<path class="st4" d="M23.2,18.4c-0.1,0.6-0.8,1-1.4,0.8c-0.6-0.1-1-0.8-0.8-1.4c0.1-0.6,0.8-1,1.4-0.8S23.4,17.7,23.2,18.4"/>
		<path class="st4" d="M27.5,19.4c-0.1,0.6-0.8,1-1.4,0.8s-1-0.8-0.8-1.4c0.1-0.6,0.8-1,1.4-0.8S27.7,18.8,27.5,19.4"/>
		<path class="st4" d="M31.9,20.4c-0.1,0.6-0.8,1-1.4,0.8c-0.6-0.1-1-0.8-0.8-1.4c0.1-0.6,0.8-1,1.4-0.8S32,19.8,31.9,20.4"/>
		<path class="st4" d="M36.2,21.5c-0.1,0.6-0.8,1-1.4,0.8c-0.6-0.1-1-0.8-0.8-1.4c0.1-0.6,0.8-1,1.4-0.8
			C36,20.3,36.3,20.9,36.2,21.5"/>
		<path class="st4" d="M21.9,23.5c-0.1,0.6-0.8,1-1.4,0.8s-1-0.8-0.8-1.4c0.1-0.6,0.8-1,1.4-0.8C21.7,22.3,22.1,22.9,21.9,23.5"/>
		<path class="st4" d="M26.3,24.5c-0.1,0.6-0.8,1-1.4,0.8s-1-0.8-0.8-1.4c0.1-0.6,0.8-1,1.4-0.8C26,23.3,26.4,23.9,26.3,24.5"/>
		<path class="st5" d="M30.6,25.6l-0.4-0.1c-0.1,0.4-0.5,0.6-0.8,0.5c-0.4-0.1-0.6-0.5-0.5-0.8c0.1-0.4,0.5-0.6,0.8-0.5
			c0.4,0.1,0.6,0.5,0.5,0.8L30.6,25.6l0.4,0.1c0.2-0.9-0.3-1.7-1.2-1.9c-0.9-0.2-1.7,0.3-1.9,1.2c-0.2,0.9,0.3,1.7,1.2,1.9
			c0.9,0.2,1.7-0.3,1.9-1.2L30.6,25.6z"/>
		<path class="st5" d="M34.9,26.6l-0.4-0.1c-0.1,0.4-0.5,0.6-0.8,0.5c-0.4-0.1-0.6-0.5-0.5-0.8c0.1-0.4,0.5-0.6,0.8-0.5
			c0.4,0.1,0.6,0.5,0.5,0.8L34.9,26.6l0.4,0.1c0.2-0.9-0.3-1.7-1.2-1.9c-0.9-0.2-1.7,0.3-1.9,1.2c-0.2,0.9,0.3,1.7,1.2,1.9
			c0.9,0.2,1.7-0.3,1.9-1.2L34.9,26.6z"/>
		<path class="st4" d="M20.6,28.8c-0.1,0.6-0.8,1-1.4,0.8c-0.6-0.1-1-0.8-0.8-1.4c0.1-0.6,0.8-1,1.4-0.8S20.7,28.2,20.6,28.8"/>
		<path class="st5" d="M24.9,29.8l-0.4-0.1c-0.1,0.4-0.5,0.6-0.8,0.5c-0.4-0.1-0.6-0.5-0.5-0.8c0.1-0.4,0.5-0.6,0.8-0.5
			c0.4,0.1,0.6,0.5,0.5,0.8L24.9,29.8l0.4,0.1c0.2-0.9-0.3-1.7-1.2-1.9c-0.9-0.2-1.7,0.3-1.9,1.2c-0.2,0.9,0.3,1.7,1.2,1.9
			c0.9,0.2,1.7-0.3,1.9-1.2L24.9,29.8z"/>
		<path class="st5" d="M29.2,30.9l-0.4-0.1c-0.1,0.4-0.5,0.6-0.8,0.5c-0.4-0.1-0.6-0.5-0.5-0.8c0.1-0.4,0.5-0.6,0.8-0.5
			c0.4,0.1,0.6,0.5,0.5,0.8L29.2,30.9l0.4,0.1c0.2-0.9-0.3-1.7-1.2-1.9c-0.9-0.2-1.7,0.3-1.9,1.2c-0.2,0.9,0.3,1.7,1.2,1.9
			c0.9,0.2,1.7-0.3,1.9-1.2L29.2,30.9z"/>
		<path class="st3" d="M33.6,31.9c-0.1,0.6-0.8,1-1.4,0.8c-0.6-0.1-1-0.8-0.8-1.4c0.1-0.6,0.8-1,1.4-0.8S33.7,31.3,33.6,31.9"/>
	</g>
	<path class="st2" d="M32.9,5.9c-0.1,0.3-0.3,0.4-0.6,0.4c-0.3-0.1-0.4-0.3-0.4-0.6c0.1-0.3,0.3-0.4,0.6-0.4
		C32.8,5.3,33,5.6,32.9,5.9"/>
	<polygon class="st6" points="4,12 9.5,3.3 5.2,1.7 3.7,11.9 	"/>
	<path class="st6" d="M3.4,13c-1-0.4-2.2,0.1-2.5,1.2c-0.4,1,0.1,2.2,1.2,2.5c1,0.4,2.2-0.1,2.5-1.2C5,14.5,4.4,13.4,3.4,13"/>
	<path class="st6" d="M10.5,15.2c-0.9-0.6-2.1-0.3-2.7,0.7c-0.6,0.9-0.3,2.1,0.7,2.7c0.9,0.6,2.1,0.3,2.7-0.7
		C11.7,17,11.4,15.8,10.5,15.2"/>
	<path class="st6" d="M10,13.7c0-0.1,0-0.1,0-0.2l0.4-0.7c0.2-0.4,0.5-0.7,0.8-0.9c0.3-0.2,0.6-0.4,1-0.4c0.3-0.1,0.7-0.2,1.2-0.2
		c0.6-0.1,1.1-0.2,1.5-0.3c0.4-0.1,0.7-0.4,0.9-0.8c0.3-0.5,0.4-0.9,0.3-1.4c-0.1-0.4-0.4-0.8-0.8-1.1c-0.5-0.3-0.9-0.4-1.4-0.2
		c-0.5,0.1-0.8,0.4-1.1,0.9l-0.2,0.4c-0.1,0.1-0.2,0.2-0.3,0.1l-1.6-1.1c-0.1,0-0.1-0.1-0.1-0.2c0-0.1,0-0.1,0-0.2L10.9,7
		c0.4-0.7,0.9-1.2,1.6-1.5c0.6-0.3,1.3-0.5,2-0.4c0.7,0,1.5,0.3,2.2,0.7c1.1,0.6,1.7,1.5,2,2.4c0.3,1,0.1,2-0.5,3
		c-0.3,0.5-0.7,0.9-1.1,1.2c-0.4,0.3-0.8,0.5-1.1,0.6c-0.4,0.1-0.8,0.2-1.4,0.3c-0.6,0.1-1,0.2-1.3,0.3c-0.3,0.1-0.6,0.3-0.8,0.6
		l-0.4,0.6c0,0.1-0.1,0.1-0.2,0.1c-0.1,0-0.1,0-0.2,0l-1.6-1C10.1,13.8,10.1,13.8,10,13.7"/>
</g>
</svg>
