<?xml version="1.0" encoding="utf-8"?>
<!-- Generator: Adobe Illustrator 21.0.0, SVG Export Plug-In . SVG Version: 6.00 Build 0)  -->
<svg version="1.1" id="Layer_1" xmlns="http://www.w3.org/2000/svg" xmlns:xlink="http://www.w3.org/1999/xlink" x="0px" y="0px"
	 viewBox="0 0 47 31" style="enable-background:new 0 0 47 31;" xml:space="preserve">
<style type="text/css">
	.st0{fill:#F28AB2;}
	.st1{fill:#F7EDF0;}
	.st2{fill:#FC478A;}
	.st3{fill:#ED4F69;}
	.st4{fill:#F08085;}
	.st5{fill:#F23057;}
</style>
<g>
	<g>
		<path class="st0" d="M14.2,8.9C8.5,7.5,2.6,10.9,1.1,16.6C-0.4,22.3,3,28.2,8.7,29.7c5.7,1.5,11.6-1.9,13.1-7.7
			C23.3,16.3,19.9,10.4,14.2,8.9z M9.3,27.5c-4.5-1.2-7.2-5.8-6-10.3c1.2-4.5,5.8-7.2,10.3-6c4.5,1.2,7.2,5.8,6,10.3
			C18.5,26,13.8,28.7,9.3,27.5z"/>
		<ellipse transform="matrix(0.2532 -0.9674 0.9674 0.2532 -8.1952 21.6794)" class="st0" cx="9.9" cy="16.1" rx="2" ry="1.2"/>
		<ellipse transform="matrix(0.2532 -0.9674 0.9674 0.2532 -6.0305 26.7796)" class="st0" cx="14.3" cy="17.3" rx="2" ry="1.2"/>
		<path class="st0" d="M14.1,21.7c-0.3-0.4-0.8-0.6-1.2-0.3l-2.4,1.3l-1.6-2.4c-0.3-0.4-0.8-0.5-1.3-0.3L5,21.5
			c-0.4,0.3-0.6,0.8-0.3,1.3C5,23.2,5.5,23.4,6,23.1l1.9-1.1l1.6,2.3c0.1,0.2,0.3,0.3,0.5,0.4c0.2,0.1,0.5,0,0.7-0.1l2.4-1.3
			l1.2,1.9c0.3,0.4,0.9,0.6,1.3,0.3c0.4-0.3,0.6-0.9,0.3-1.3L14.1,21.7z"/>
	</g>
	<g>
		<path class="st0" d="M35.4,0.5c-0.2,0-0.5,0-0.5,0c-0.2,0-0.4,0-0.6,0c0,0-0.5,0.1-1,0.3c-0.4,0.2-1,0.5-1.9,1.7
			c-0.9,1.2-1.4,2.4-1.6,2.9c-0.3,0.8-1.1,2.8-1.3,5.7c-0.1,0.9-0.1,1.7,0,2.7c0.1,0.9,0.5,2.3,1.3,3.9c0.1,0.2,0.8,1,2,2.6
			c1.2,1.4,1.6,1.9,2.4,2.1c0.3,0.1,0.6,0.1,1.1,0.2c0.6,0.2,0.9,0.5,1.5,0.8c1.2,0.9,1.8,1.3,2.3,1.4c0.2,0.1,1,0.2,1.9-0.1
			c0.7-0.3,1.1-0.9,1.6-1.7c0.8-1.2,1.2-2.7,1.2-2.7s0.3-0.4,0.4-0.4c0.4-0.4,0.9-1,0.9-1c0.6-0.7,0.8-2.3,0.9-3.2
			c0.1-1.6,0.2-2.8-0.1-4.5c-0.4-2.2-1.3-3.7-1.6-4.3c-1.2-2.1-2.7-3.2-3.8-4C40.6,2.8,37.8,0.7,35.4,0.5"/>
		<path class="st1" d="M35.1,5c-0.1-0.2-0.2-0.2-0.4-0.4c-0.1-0.2-0.2-0.5-0.1-0.7c0.1-0.2,0.3-0.4,0.5-0.4c0.2,0,0.4,0.2,0.5,0.4
			c0.1,0.3-0.1,0.5-0.1,1c0,0.1,0,0.3,0.1,0.5c0.2,0.4,0.7,0.4,0.9,0.5c0.5,0.2,0.9,0.6,1.6,1.6c0.5,0.6,1.1,1.6,1.7,3.1
			c0.4,1,1,2.5,1.1,4.7c0,0.4,0.1,1.9-0.3,3.8c-0.2,1.2-0.2,2.1-0.6,2.2c-0.2,0-0.3-0.1-0.6-0.3c-1.3-1.1-1.9-1.6-2-1.7
			c-0.4-0.5-0.9-1-1.4-2c-1.5-2.8-1.8-5.4-2-7c-0.2-1.9,0-2.4,0.1-2.7C34.5,7,34.7,6.4,35,5.9c0-0.1,0.1-0.2,0.1-0.5
			C35.1,5.3,35.2,5.1,35.1,5"/>
		<path class="st2" d="M36.3,8.6c-0.3,0.1-0.4,0.8-0.5,1.6c-0.1,0.8,0,1.5,0.1,2.3c0.2,1.1,0.6,1.9,1.2,3.2c0.7,1.5,0.5,0.7,1.6,2.7
			c0.1,0.2,0.3,0.6,0.5,0.5c0.2,0,0.2-0.6,0.2-0.9c0.1-3,0.2-2.5,0.1-3.3c-0.1-0.9-0.2-1.8-0.5-2.7C38.3,10.2,36.9,8.4,36.3,8.6"/>
		<path class="st3" d="M35.5,16.1c-0.3,0.5-0.4,1.3-0.2,2.1c0.4,1.3,1.4,2.2,2.3,1.9c0.2,0,0.3-0.1,0.5-0.3
			c-0.4-0.4-0.7-0.6-0.7-0.6c-0.4-0.5-0.9-1-1.4-2C35.8,16.8,35.6,16.4,35.5,16.1"/>
		<path class="st4" d="M36.3,15.3c-0.4,0.1-0.7,0.4-0.9,0.7c0.2,0.4,0.4,0.8,0.6,1.2c0.5,1,1,1.5,1.4,2c0,0,0.3,0.2,0.7,0.6
			c0.3-0.3,0.6-0.8,0.6-1.3c0-0.1-0.1-0.1-0.1-0.2c-1.1-2-0.9-1.2-1.6-2.7c-0.1-0.1-0.1-0.2-0.2-0.4C36.7,15.3,36.5,15.3,36.3,15.3"
			/>
		<path class="st5" d="M36.9,15.3c0.1,0.1,0.1,0.2,0.2,0.4c0.7,1.5,0.5,0.7,1.6,2.7c0,0,0.1,0.1,0.1,0.2c0.1-0.4,0-0.8-0.1-1.3
			C38.4,16.2,37.7,15.4,36.9,15.3"/>
		<path class="st3" d="M38.5,6.8C38.5,6.8,38.5,6.8,38.5,6.8C38.3,6.9,38.1,7,38,7.2c0,0.1,0.1,0.1,0.1,0.2c0.5,0.6,1.1,1.6,1.7,3.1
			c0.4,1,1,2.5,1.1,4.7c0,0.1,0,0.3,0,0.5c0.3,0.3,0.7,0.4,1,0.3c0,0,0,0,0.1,0c0.9-0.3,0.8-2.7-0.1-5.2C40.9,8.3,39.4,6.6,38.5,6.8
			"/>
		<path class="st4" d="M38,7.2c-0.3,0.6-0.3,1.6,0,2.9c0.4,0.6,0.7,1.2,0.9,1.9c0.2,0.6,0.3,1.2,0.4,1.7c0.5,0.9,1.1,1.7,1.6,2.1
			c0-0.2,0-0.4,0-0.5c-0.1-2.2-0.7-3.7-1.1-4.7C39.3,9,38.7,8,38.2,7.4C38.1,7.3,38.1,7.3,38,7.2"/>
		<path class="st5" d="M38,10.1c0.1,0.6,0.3,1.3,0.6,1.9c0.2,0.6,0.5,1.1,0.8,1.6c-0.1-0.6-0.2-1.1-0.4-1.7
			C38.7,11.3,38.4,10.6,38,10.1"/>
		<path class="st3" d="M34.1,1.6c-0.9,0.2-1.8,2.2-2.1,4.6c-0.4,2.7,0.1,5,1,5.1c0.1,0,0.2,0,0.3,0c0.3-0.1,0.5-0.3,0.8-0.7
			c0-0.1,0-0.3,0-0.4c-0.2-1.9,0-2.4,0.1-2.7C34.5,7,34.7,6.4,35,5.9c0-0.1,0.1-0.2,0.1-0.5c0-0.1,0-0.2-0.1-0.4
			c-0.1-0.2-0.2-0.2-0.4-0.4c-0.1-0.2-0.2-0.5-0.1-0.7c0.1-0.1,0.2-0.3,0.4-0.4c0,0,0.1,0,0.1,0c0.2,0,0.3,0.1,0.4,0.2
			c-0.2-1.2-0.5-2-1.1-2C34.3,1.6,34.2,1.6,34.1,1.6 M35.6,4.4c0,0.1,0,0.2,0,0.4c0,0.1,0,0.2,0,0.3C35.6,4.9,35.6,4.6,35.6,4.4"/>
		<path class="st4" d="M35,3.5c-0.2,0.1-0.3,0.2-0.4,0.4c-0.1,0.3,0,0.5,0.1,0.7C34.9,4.8,35,4.8,35.1,5c0.1,0.1,0.1,0.3,0.1,0.4
			c0,0.3-0.1,0.5-0.1,0.5c-0.3,0.6-0.5,1.2-0.8,1.7c-0.1,0.2-0.3,0.7-0.1,2.7c0,0.1,0,0.3,0,0.4c0.6-0.8,1.1-2.2,1.3-3.9
			c0.1-0.6,0.1-1.1,0.1-1.6c0-0.1,0-0.2,0-0.3c0-0.2,0-0.3,0-0.4c0-0.3,0-0.5-0.1-0.7c-0.1-0.1-0.2-0.2-0.4-0.2
			C35.1,3.5,35,3.5,35,3.5"/>
	</g>
</g>
</svg>
