<?xml version="1.0" encoding="utf-8"?>
<!-- Generator: Adobe Illustrator 21.0.0, SVG Export Plug-In . SVG Version: 6.00 Build 0)  -->
<svg version="1.1" id="Layer_1" xmlns="http://www.w3.org/2000/svg" xmlns:xlink="http://www.w3.org/1999/xlink" x="0px" y="0px"
	 viewBox="0 0 57 62" style="enable-background:new 0 0 57 62;" xml:space="preserve">
<style type="text/css">
	.st0{fill:#7ABFAD;}
	.st1{fill:#C7E5E0;}
	.st2{fill:#C7E8E3;}
	.st3{fill:#D9F0ED;}
	.st4{fill:#B8DED6;}
</style>
<g>
	<g>
		<polygon class="st0" points="12.5,40.5 18.6,61.1 19.4,61.5 20,60.8 20.9,61 21.6,60.3 22.5,60.5 23,59.9 23.9,60.1 24.5,59.3 
			25.5,59.6 26.1,59 26.9,59.2 27.5,58.5 28.3,58.8 29.1,58.1 29.9,58.3 30.5,57.7 31.5,57.9 32,57.3 32.9,57.4 33.5,56.8 34.3,57 
			35,56.2 35.9,56.5 36.5,55.8 37.4,56.1 37.9,55.5 38.9,55.6 39.4,54.9 33.3,34.3 32.8,34.9 31.8,34.7 31.2,35.4 30.4,35.2 
			29.7,35.9 28.9,35.6 28.4,36.3 27.4,36.1 26.9,36.7 25.7,36.6 25.2,37.2 24.4,37 23.8,37.7 22.9,37.4 22.4,38.1 21.5,37.8 
			20.8,38.6 19.9,38.3 19.3,39 18.4,38.8 17.8,39.4 17,39.2 16.3,39.8 15.4,39.6 14.9,40.3 13.9,40.1 13.4,40.8 		"/>
		<path class="st1" d="M29.5,38l-11.8,3.5c-1.3,0.4-2,1.7-1.6,3l3.5,11.8c0.4,1.3,1.7,2,3,1.6l11.8-3.5c1.3-0.4,2-1.7,1.6-3
			l-3.5-11.8C32.1,38.3,30.8,37.6,29.5,38 M28.2,55.3c-4,1.2-8.3-1.1-9.5-5.1c-1.2-4,1.1-8.3,5.1-9.5c4-1.2,8.3,1.1,9.5,5.1
			C34.5,49.8,32.2,54.1,28.2,55.3"/>
		<path class="st2" d="M24.3,42.2c-3.2,1-5,4.3-4.1,7.5c1,3.2,4.3,5,7.5,4.1c3.2-1,5-4.3,4.1-7.5C30.9,43,27.5,41.2,24.3,42.2"/>
	</g>
	<g>
		<path class="st0" d="M38.8,11.7c0.6,0.2,2.2,0.8,3.9,2c1.3,0.9,1.9,1.5,2.2,2c0.4,0.6,1,1.3,1,2.4c0.1,1-0.3,1.8-0.5,2.1
			c-0.2,0.4-1,1.7-4.1,2.7c-1.3,0.4-3.1,0.8-6.4,0.7c-5.1-0.1-8.7-1.2-9.5-1.4c-4.6-1.4-6-2.9-6.4-3.3c-0.7-0.7-1.8-2-1.7-3.6
			c0.1-1.4,1.1-2.3,1.5-2.7c1-1,2.2-1.4,3.6-1.8c2.4-0.6,4.9-0.8,7.8-0.6C34.4,10.3,37.4,11.3,38.8,11.7"/>
		<path class="st3" d="M33,0.5c-0.1,0-0.2,0-0.2,0c-0.9-0.1-1.6,0.2-2.3,0.5C30.1,1.2,29,1.7,28,2.9c-1,1.2-1.4,2.4-1.7,3.7
			c-0.5,1.7-0.2,1.8-0.7,3.2c0,0.1-0.1,0.2-0.1,0.3c1.5-0.2,3-0.2,4.7-0.1c0.9,0,1.7,0.1,2.5,0.2c2.4,0.3,4.2,0.8,5.4,1.2
			c0.1-0.6,0.3-1.3,0.3-3.1c0-1.7-0.2-2.5-0.3-3c-0.2-0.5-0.4-1.4-1-2.2C36.8,2.8,36,1.8,34.6,1C34.1,0.8,33.7,0.6,33,0.5"/>
		<path class="st4" d="M32.6,10.3c-0.8-0.1-1.6-0.2-2.5-0.2c-1.7-0.1-3.2-0.1-4.7,0.1c-0.3,0.8-0.7,1.9-1.7,3
			c-0.7,0.8-1.4,1.2-1.9,1.5c1.6-0.8,5.5-1.1,10-0.5c3.3,0.4,6.1,1.2,8,2l0,0c-1.4-0.7-1.7-2.7-1.9-3.4c-0.1-0.6-0.1-0.9,0-1.3
			C36.8,11.1,35,10.6,32.6,10.3 M40.1,16.2c0.5,0.2,0.9,0.5,1.2,0.7C40.9,16.5,40.5,16.4,40.1,16.2 M21.6,14.8
			c-0.3,0.2-0.4,0.3-0.4,0.6c0,0,0,0,0,0C21.2,15.2,21.3,15,21.6,14.8 M42,18.1L42,18.1C42,18.1,42,18.2,42,18.1
			C42,18.2,42,18.1,42,18.1 M36.6,19.7c-1.6,0-3.4-0.1-5.4-0.3c-1.9-0.2-3.7-0.6-5.2-1c1.4,0.5,3.1,1,5.2,1.2
			C32.8,19.8,34.6,19.9,36.6,19.7"/>
		<path class="st4" d="M31.9,14.1c-4.5-0.6-8.5-0.3-10,0.5c-0.1,0.1-0.2,0.1-0.3,0.2c-0.2,0.2-0.4,0.4-0.4,0.6
			c-0.1,1.3,3.6,2.6,4.9,3c0,0,0,0,0,0c1.5,0.4,3.3,0.8,5.2,1c1.9,0.2,3.8,0.3,5.4,0.3c0,0,0,0,0,0c0.5,0,5.1-0.4,5.4-1.6
			c0,0,0,0,0-0.1c0-0.4-0.5-1-0.7-1.1c0,0,0,0,0,0c-0.3-0.2-0.7-0.5-1.2-0.7c-0.1,0-0.1-0.1-0.2-0.1C38,15.3,35.2,14.5,31.9,14.1"/>
	</g>
</g>
</svg>
