<?xml version="1.0" encoding="utf-8"?>
<!-- Generator: Adobe Illustrator 21.0.0, SVG Export Plug-In . SVG Version: 6.00 Build 0)  -->
<svg version="1.1" id="Layer_1" xmlns="http://www.w3.org/2000/svg" xmlns:xlink="http://www.w3.org/1999/xlink" x="0px" y="0px"
	 viewBox="0 0 54 41" style="enable-background:new 0 0 54 41;" xml:space="preserve">
<style type="text/css">
	.st0{fill:#7ABFAD;}
	.st1{fill:#C7E5E0;}
	.st2{fill:#C7E8E3;}
	.st3{fill:#D9F0ED;}
	.st4{fill:#B8DED6;}
</style>
<g>
	<g>
		<polygon class="st0" points="0.4,18.7 2.7,40.1 3.4,40.6 4.1,40.1 5,40.4 5.7,39.8 6.6,40.3 7.2,39.7 8.1,40.1 8.8,39.4 9.8,39.9 
			10.4,39.4 11.2,39.8 11.9,39.2 12.7,39.6 13.5,39 14.4,39.4 15,38.9 15.9,39.3 16.6,38.8 17.4,39.1 18.1,38.6 18.9,38.9 
			19.8,38.3 20.5,38.8 21.3,38.1 22.1,38.6 22.7,38.1 23.7,38.4 24.3,37.8 22,16.4 21.5,17 20.5,16.6 19.8,17.1 19,16.8 18.2,17.3 
			17.5,16.9 16.8,17.5 16,17.1 15.3,17.6 14.1,17.3 13.5,17.8 12.8,17.4 12.1,18 11.2,17.6 10.6,18.2 9.8,17.7 9,18.4 8.1,17.9 
			7.4,18.5 6.6,18.1 5.9,18.6 5.1,18.2 4.3,18.8 3.5,18.4 2.8,19 1.9,18.6 1.3,19.2 		"/>
		<path class="st1" d="M17.6,19.4L5.4,20.7C4,20.8,3.1,22,3.2,23.3l1.3,12.3c0.1,1.3,1.3,2.3,2.7,2.2l12.3-1.3
			c1.3-0.1,2.3-1.3,2.2-2.7l-1.3-12.3C20.1,20.2,19,19.2,17.6,19.4 M13.2,36.1c-4.2,0.4-7.9-2.6-8.4-6.8c-0.4-4.2,2.6-7.9,6.8-8.4
			c4.2-0.4,7.9,2.6,8.4,6.8C20.4,31.9,17.4,35.7,13.2,36.1"/>
		<path class="st2" d="M11.8,22.5c-3.3,0.4-5.7,3.3-5.4,6.7c0.4,3.3,3.3,5.7,6.7,5.4c3.3-0.4,5.7-3.3,5.4-6.7
			C18.1,24.6,15.1,22.2,11.8,22.5"/>
	</g>
	<g>
		<path class="st0" d="M47.9,12.8c0.6,0.3,2,1.2,3.5,2.7c1.1,1.1,1.6,1.8,1.8,2.4c0.3,0.6,0.7,1.5,0.6,2.6c-0.1,1-0.7,1.7-0.9,1.9
			c-0.3,0.4-1.3,1.5-4.6,1.9c-1.3,0.2-3.2,0.2-6.5-0.5c-5-1-8.3-2.7-9.1-3.1c-4.2-2.2-5.4-3.9-5.7-4.4c-0.5-0.8-1.4-2.3-1-3.9
			c0.4-1.3,1.5-2.1,1.9-2.4c1.2-0.8,2.5-1,3.9-1.1c2.4-0.1,4.9,0.1,7.8,0.8C43.9,10.6,46.6,12.1,47.9,12.8"/>
		<path class="st3" d="M44.3,0.7c-0.1,0-0.1,0-0.2-0.1c-0.9-0.2-1.6-0.1-2.3,0.1c-0.5,0.1-1.7,0.4-2.9,1.4c-1.2,1-1.8,2.1-2.4,3.4
			c-0.8,1.6-0.5,1.7-1.2,3c-0.1,0.1-0.1,0.2-0.2,0.3c1.5,0.1,3,0.4,4.6,0.8c0.9,0.2,1.7,0.4,2.4,0.7c2.3,0.7,4,1.6,5.1,2.1
			c0.2-0.6,0.6-1.2,0.9-2.9c0.3-1.6,0.3-2.5,0.2-3c0-0.6-0.1-1.4-0.6-2.4c-0.2-0.4-0.8-1.6-2.1-2.6C45.3,1.2,44.9,0.9,44.3,0.7"/>
		<path class="st4" d="M42.1,10.2c-0.7-0.2-1.5-0.5-2.4-0.7c-1.6-0.4-3.2-0.6-4.6-0.8c-0.4,0.7-1.1,1.7-2.2,2.6
			c-0.9,0.7-1.6,0.9-2.1,1.1c1.7-0.5,5.6,0,10,1.4c3.1,1,5.8,2.3,7.5,3.4c0,0,0,0,0,0c-1.2-1-1.2-3-1.2-3.7c0-0.6,0.1-0.9,0.2-1.2
			C46.1,11.8,44.4,11,42.1,10.2 M48.4,17.4c0.4,0.3,0.8,0.6,1.1,0.9C49.1,17.9,48.7,17.7,48.4,17.4 M30.4,12.6
			c-0.3,0.1-0.5,0.2-0.5,0.5c0,0,0,0,0,0C30,12.9,30.2,12.8,30.4,12.6 M49.9,19.6L49.9,19.6C49.9,19.7,49.9,19.7,49.9,19.6
			C49.9,19.7,49.9,19.7,49.9,19.6 M44.3,20.2c-1.6-0.3-3.4-0.7-5.2-1.3c-1.8-0.6-3.5-1.3-4.9-2c1.3,0.7,2.9,1.5,4.9,2.2
			C40.5,19.6,42.3,20,44.3,20.2"/>
		<path class="st4" d="M40.7,13.9c-4.3-1.4-8.3-1.9-10-1.4c-0.1,0-0.2,0.1-0.3,0.1c-0.3,0.1-0.5,0.3-0.5,0.5c-0.3,1.2,3,3.2,4.2,3.8
			c0,0,0,0,0,0c1.4,0.7,3.1,1.4,4.9,2c1.9,0.6,3.7,1,5.2,1.3c0,0,0,0,0,0c0.5,0,5.1,0.5,5.6-0.5c0,0,0,0,0-0.1
			c0.1-0.4-0.3-1-0.5-1.3c0,0,0,0,0,0c-0.3-0.3-0.6-0.6-1.1-0.9c-0.1,0-0.1-0.1-0.2-0.1C46.5,16.1,43.8,14.9,40.7,13.9"/>
	</g>
</g>
</svg>
