<svg id="SvgjsSvg1012" width="25" height="25" xmlns="http://www.w3.org/2000/svg" version="1.1" xmlns:xlink="http://www.w3.org/1999/xlink" xmlns:svgjs="http://svgjs.com/svgjs"><defs id="SvgjsDefs1013"></defs><g id="SvgjsG1014"><svg xmlns="http://www.w3.org/2000/svg" width="288" height="288" viewBox="0 0 27 27"><path fill="#ff248a" stroke="#ffb27c" stroke-width="1.5" d="M 10807.43156 7873.413382 C 10807.447858 7709.408329 10672.639696 7576.408521 10506.45614 7576.417469 C 10340.185305 7576.42674 10205.381395 7709.385618 10205.452376 7873.390349 C 10205.436078 8037.395403 10340.15696 8170.395532 10506.427796 8170.386262 C 10672.611351 8170.377313 10807.415261 8037.418435 10807.43156 7873.413382 Z M 10807.43156 7873.413382 " transform="matrix(.04475 .00017 -.00016 .04533 -455.41 -345.174)" class="colorff5656 svgShape colorStrokeffb27c svgStroke"></path><path fill="#ffffff" stroke="#dd742e" d="M 10526.214268 7671.251047 C 10428.717148 7671.242786 10349.33201 7748.71331 10349.370779 7843.862014 C 10349.323098 7939.097738 10428.708256 8016.503021 10526.205376 8016.511283 C 10623.789774 8016.518703 10703.087635 7939.049019 10703.136142 7843.899474 C 10703.097373 7748.75077 10623.798666 7671.258467 10526.214268 7671.251047 Z M 10468.752519 7704.727885 C 10458.064796 7718.879183 10450.108245 7735.675914 10444.504861 7752.10522 C 10434.170711 7748.498844 10424.615445 7744.195474 10416.10172 7739.278765 C 10430.884841 7724.398504 10448.75237 7712.591201 10468.752519 7704.727885 Z M 10401.081538 7756.746883 C 10412.143626 7763.44893 10424.593059 7769.18956 10438.166354 7773.798943 C 10433.716557 7792.199401 10431.026331 7812.048057 10430.263622 7832.653805 L 10372.829794 7832.604114 C 10375.004374 7804.486596 10385.141772 7778.446967 10401.081538 7756.746883 Z M 10401.093606 7931.100557 C 10385.174086 7909.362823 10374.974369 7883.346854 10372.871566 7855.18438 L 10430.304567 7855.147894 C 10431.025562 7875.73934 10433.659212 7895.536679 10438.200564 7914.022843 C 10424.628338 7918.635326 10412.114166 7924.358025 10401.093606 7931.100557 Z M 10416.099075 7948.537813 C 10424.605126 7943.543234 10434.165102 7939.227983 10444.430722 7935.681601 C 10450.174957 7952.173898 10458.016308 7968.904537 10468.713846 7983.108259 C 10448.737153 7975.199354 10430.905222 7963.391417 10416.099075 7948.537813 Z M 10514.70972 7991.886777 C 10490.887074 7983.411644 10474.795234 7952.798439 10466.626824 7929.262277 C 10481.693487 7925.755803 10497.907957 7923.617238 10514.660123 7922.938648 Z M 10514.706454 7900.443719 C 10495.772371 7901.14334 10477.465738 7903.560629 10460.309389 7907.60436 C 10456.399616 7891.266752 10454.047612 7873.535157 10453.348085 7855.184333 L 10514.709362 7855.196167 Z M 10514.667591 7832.615901 L 10453.39359 7832.603226 C 10454.09049 7814.238941 10456.452251 7796.548096 10460.310101 7780.135615 C 10477.456786 7784.193439 10495.723205 7786.689127 10514.670499 7787.36835 Z M 10514.71683 7764.87342 C 10497.864176 7764.174006 10481.6957 7762.00284 10466.562158 7758.528912 C 10474.803414 7735.006947 10490.83269 7704.428867 10514.666408 7695.839113 Z M 10651.326865 7756.747951 C 10667.332835 7778.398665 10677.446102 7804.501653 10679.636181 7832.663286 L 10622.115077 7832.614436 C 10621.394909 7812.109167 10618.760433 7792.225651 10614.307183 7773.824824 C 10627.878583 7769.126163 10640.305479 7763.404304 10651.326865 7756.747951 Z M 10636.407846 7739.223676 C 10627.814519 7744.219096 10618.254543 7748.534347 10607.989749 7752.166907 C 10602.33279 7735.673769 10594.403336 7718.857793 10583.705799 7704.654071 C 10603.682492 7712.562975 10621.602525 7724.456249 10636.407846 7739.223676 Z M 10537.797202 7695.874711 C 10561.620673 7704.436022 10577.624411 7734.963891 10585.880097 7758.499212 C 10570.813435 7762.005685 10554.598965 7764.14425 10537.759522 7764.823681 Z M 10537.801293 7787.403948 C 10556.735376 7786.704326 10575.041183 7784.200859 10592.110255 7780.15797 C 10596.020854 7796.581756 10598.372033 7814.227173 10599.072386 7832.664175 L 10537.798385 7832.651499 Z M 10537.751228 7855.060251 L 10599.112506 7855.072085 C 10598.415606 7873.436369 10596.05467 7891.213393 10592.109543 7907.626714 C 10575.050135 7903.568049 10556.697265 7901.159381 10537.749146 7900.39398 Z M 10537.753237 7991.923217 L 10537.790917 7922.974246 C 10554.555468 7923.588323 10570.811222 7925.758648 10585.858312 7929.319596 C 10577.617057 7952.84156 10561.58778 7983.419641 10537.753237 7991.923217 Z M 10583.755228 7983.119781 C 10594.354849 7968.883146 10602.312225 7952.172593 10608.00206 7935.656268 C 10618.248934 7939.263486 10627.8042 7943.566855 10636.406027 7948.568902 C 10621.622081 7963.362984 10603.668101 7975.257307 10583.755228 7983.119781 Z M 10651.338932 7931.101625 C 10640.364121 7924.398737 10627.827412 7918.658947 10614.254117 7914.049565 C 10618.790364 7895.562087 10621.479765 7875.627253 10622.156023 7855.108524 L 10679.589025 7855.072038 C 10677.415271 7883.275734 10667.277873 7909.315363 10651.338932 7931.101625 Z M 10651.338932 7931.101625 " transform="matrix(.04475 .00044 -.00043 .04532 -454.31 -346.659)" class="colorfff svgShape colorStrokedd742e svgStroke"></path></svg></g></svg>