<?xml version="1.0" encoding="utf-8"?>
<!-- Generator: Adobe Illustrator 21.0.0, SVG Export Plug-In . SVG Version: 6.00 Build 0)  -->
<svg version="1.1" id="Layer_1" xmlns="http://www.w3.org/2000/svg" xmlns:xlink="http://www.w3.org/1999/xlink" x="0px" y="0px"
	 viewBox="0 0 50 43" style="enable-background:new 0 0 50 43;" xml:space="preserve">
<style type="text/css">
	.st0{opacity:0.69;fill:#E82129;}
	.st1{fill:#D4DEDB;}
	.st2{fill:#CCE8E5;}
	.st3{fill:#E0F2F0;}
</style>
<g>
	<path class="st0" d="M16,32c0,2.7-2.2,5-4.9,5c-2.7,0-4.9-2.2-4.9-5c0-2.7,4.9-10.8,4.9-10.8S16,29.3,16,32"/>
	<path class="st0" d="M6.8,23.2c0,1.4-1.1,2.5-2.5,2.5c-1.4,0-2.5-1.1-2.5-2.5c0-1.4,2.5-5.5,2.5-5.5S6.8,21.8,6.8,23.2"/>
	<g>
		<path class="st1" d="M27.4,41.9L27.4,41.9c-4.4-1.7-6.5-6.7-4.8-11.1l9.2-23.5c1.7-4.4,6.7-6.5,11.1-4.8c4.4,1.7,6.5,6.7,4.8,11.1
			L38.5,37C36.8,41.4,31.8,43.6,27.4,41.9"/>
		<path class="st1" d="M47.9,14.9c0.2,0.5,0.3,0.9,0.3,1.3c0,0.2,0,0.5,0,0.8c-0.1,0.6-0.4,0.8-0.5,1.3c0,0.3,0,0.5,0.1,0.7
			c0.2,0.7,0.6,0.7,1.1,1.6c0.4,0.7,0.5,1.2,0.5,1.3c0,0.3,0,0.5-0.1,0.7l-4.4,10.5c0,0.2-0.1,0.3-0.1,0.3c-0.5,0.7-1.9,0.4-3.5,0.8
			c-0.1,0-0.3,0.1-0.5,0.2c-0.3,0.2-0.3,0.5-0.6,1c-0.2,0.4-0.3,0.7-0.5,0.8c-0.4,0.5-1.2,0.7-1.4,0.6c-1.6-0.7,6.9-23.9,8.6-23.4
			C47.3,13.3,47.6,14.1,47.9,14.9"/>
		<path class="st1" d="M30.5,8.3c-0.5,0.2-0.8,0.5-1.1,0.7c-0.2,0.2-0.3,0.3-0.5,0.6c-0.3,0.5-0.2,0.8-0.5,1.3
			c-0.2,0.2-0.4,0.4-0.5,0.4c-0.6,0.4-0.9,0.2-1.8,0.4c-0.8,0.2-1.1,0.5-1.2,0.6c-0.2,0.2-0.3,0.4-0.4,0.5l-3.9,10.7
			c-0.1,0.1-0.1,0.3-0.1,0.3c-0.1,0.8,1.1,1.6,2,2.9c0.1,0.1,0.2,0.3,0.2,0.5c0.1,0.4-0.1,0.6-0.3,1.1c-0.1,0.5-0.2,0.7-0.2,0.9
			c0,0.6,0.4,1.3,0.6,1.4c1.7,0.6,11.2-22.2,9.6-23C32,7.6,31.2,8,30.5,8.3"/>
		<path class="st2" d="M28.7,38.6L28.7,38.6c-3.3-1.3-4.9-5-3.6-8.3L33.4,9c1.3-3.3,5-4.9,8.3-3.6c3.3,1.3,4.9,5,3.6,8.3L37,35
			C35.7,38.3,32,39.9,28.7,38.6"/>
		<path class="st3" d="M33.4,31.5l-3.3-1.3c-0.3-0.1-0.4-0.5-0.3-0.8l5-12.7c0.1-0.3,0.5-0.4,0.8-0.3l3.3,1.3
			c0.3,0.1,0.4,0.5,0.3,0.8l-5,12.7C34,31.5,33.7,31.6,33.4,31.5"/>
	</g>
</g>
</svg>
