<?xml version="1.0" encoding="utf-8"?>
<!-- Generator: Adobe Illustrator 21.0.0, SVG Export Plug-In . SVG Version: 6.00 Build 0)  -->
<svg version="1.1" width="25" height="25" id="Layer_1" xmlns="http://www.w3.org/2000/svg" xmlns:xlink="http://www.w3.org/1999/xlink" x="0px" y="0px"
	 viewBox="0 0 42 41" style="enable-background:new 0 0 42 41;" xml:space="preserve">
<style type="text/css">
	.st0{fill:#CC1962;}
	.st1{fill:#FF428A;}
	.st2{fill:#FFFFFF;}
</style>
<circle class="st0" cx="23.2" cy="21.8" r="18.5"/>
<circle class="st1" cx="20.4" cy="19.8" r="19.3"/>
<g id="dKy8LH_2_" transform="translate(-2871.333 -1536.664)">
	<g id="Group_147_2_">
		<path id="Path_167_2_" class="st2" d="M2896.7,1550.1c0,0-0.1,0.1-0.1,0.1c-3.2,2.8-6.4,5.5-9.6,8.3c0,0.1-0.1,0.1-0.2,0
			c-1.2-0.5-2.3-1-3.5-1.4c-0.3-0.1-0.5-0.4-0.4-0.7c0-0.1,0.1-0.3,0.3-0.3c4.1-2.4,8.3-4.8,12.4-7.1c1-0.6,1.9-1.1,2.9-1.7
			c0.1-0.1,0.3-0.1,0.5-0.1c0.3,0.1,0.5,0.4,0.4,0.7c-0.2,1.1-0.4,2.2-0.6,3.4c-0.2,1.4-0.5,2.9-0.7,4.3c-0.3,1.5-0.5,3.1-0.8,4.6
			c-0.1,0.6-0.2,1.2-0.3,1.8c0,0.3-0.3,0.6-0.6,0.5c-0.1,0-0.2,0-0.2-0.1c-1.3-0.5-2.7-1.1-4-1.6c-0.1,0-0.2,0-0.2,0c0,0,0,0,0,0
			c-0.7,0.9-1.4,1.7-2.1,2.6c-0.2,0.2-0.4,0.3-0.7,0.2c-0.2-0.1-0.4-0.3-0.4-0.6c0-1,0-2.1,0-3.1c0-0.1,0-0.1,0.1-0.2
			c2.6-3.1,5.1-6.3,7.7-9.4C2896.7,1550.2,2896.7,1550.2,2896.7,1550.1L2896.7,1550.1z"/>
	</g>
</g>
</svg>
