<?xml version="1.0" encoding="utf-8"?>
<!-- Generator: Adobe Illustrator 21.0.0, SVG Export Plug-In . SVG Version: 6.00 Build 0)  -->
<svg version="1.1" width="25" height="25" id="Layer_1" xmlns="http://www.w3.org/2000/svg" xmlns:xlink="http://www.w3.org/1999/xlink" x="0px" y="0px"
	 viewBox="0 0 32 32" style="enable-background:new 0 0 32 32;" xml:space="preserve">
<style type="text/css">
	.st0{fill:#FFFFFF;}
	.st1{fill:#262626;}
</style>
<g>
	<polygon class="st0" points="16.2,18 18.1,8.8 13.9,8.8 15.9,18 	"/>
	<path class="st0" d="M16,19.1c-1,0-1.8,0.8-1.8,1.8c0,1,0.8,1.8,1.8,1.8c1,0,1.8-0.8,1.8-1.8C17.8,19.9,17,19.1,16,19.1"/>
</g>
<path class="st0" d="M19.3,14.6c0-1.8-1.5-3.2-3.2-3.2s-3.2,1.5-3.2,3.2c0,1.3,0.8,2.4,1.8,2.9V21h2.8v-3.5
	C18.6,17,19.3,15.9,19.3,14.6z"/>
<circle class="st1" cx="15.8" cy="16.3" r="15.1"/>
<g>
	<polygon class="st0" points="14.9,21.4 10,16.4 12.4,14 14.9,16.6 20.5,11 22.9,13.4 	"/>
</g>
</svg>
